HIERARCHY
ROOT Hips
{
	OFFSET 0.000000 0.000000 0.000000
	CHANNELS 6 Xposition Yposition Zposition Zrotation Yrotation Xrotation 
	JOINT LeftUpLeg_virtual
	{
		OFFSET 0.000000 0.000000 0.000000
		CHANNELS 3 Zrotation Yrotation Xrotation
		JOINT LeftUpLeg
		{
			OFFSET 8.479694 -4.795517 -0.379053
			CHANNELS 3 Zrotation Yrotation Xrotation
			JOINT LeftLeg
			{
				OFFSET 0.485052 -32.551468 0.112863
				CHANNELS 3 Zrotation Yrotation Xrotation
				JOINT LeftFoot
				{
					OFFSET 0.438033 -32.635670 -3.012641
					CHANNELS 3 Zrotation Yrotation Xrotation
					JOINT LeftToeBase
					{
						OFFSET 0.970169 -13.225353 11.864223
						CHANNELS 3 Zrotation Yrotation Xrotation
						End Site
						{
							OFFSET 0.000000 0.000000 0.000000
						}
					}
				}
			}
		}
	}
	JOINT RightUpLeg_virtual
	{
		OFFSET 0.000000 0.000000 0.000000
		CHANNELS 3 Zrotation Yrotation Xrotation
		JOINT RightUpLeg
		{
			OFFSET -8.479694 -4.795517 -0.379053
			CHANNELS 3 Zrotation Yrotation Xrotation
			JOINT RightLeg
			{
				OFFSET -0.484100 -32.551483 0.112903
				CHANNELS 3 Zrotation Yrotation Xrotation
				JOINT RightFoot
				{
					OFFSET -0.438985 -32.635651 -3.012681
					CHANNELS 3 Zrotation Yrotation Xrotation
					JOINT RightToeBase
					{
						OFFSET -0.970169 -13.225354 11.864223
						CHANNELS 3 Zrotation Yrotation Xrotation
						End Site
						{
							OFFSET 0.000000 0.000000 0.000000
						}
					}
				}
			}
		}
	}
	JOINT Spine_virtual
	{
		OFFSET 0.000000 0.000000 0.000000
		CHANNELS 3 Zrotation Yrotation Xrotation
		JOINT Spine
		{
			OFFSET 0.000000 7.722015 1.166203
			CHANNELS 3 Zrotation Yrotation Xrotation
			JOINT Spine1
			{
				OFFSET 0.000000 12.024086 0.248766
				CHANNELS 3 Zrotation Yrotation Xrotation
				JOINT Spine2
				{
					OFFSET -0.000000 11.503036 -0.491240
					CHANNELS 3 Zrotation Yrotation Xrotation
					JOINT Neck_virtual
					{
						OFFSET 0.000000 0.000000 0.000000
						CHANNELS 3 Zrotation Yrotation Xrotation
						JOINT Neck
						{
							OFFSET 0.000000 18.430687 -3.123054
							CHANNELS 3 Zrotation Yrotation Xrotation
							JOINT Head
							{
								OFFSET -0.000000 9.051071 1.034021
								CHANNELS 3 Zrotation Yrotation Xrotation
								End Site
								{
									OFFSET 0.000000 0.000000 0.000000
								}
							}
						}
					}
					JOINT LeftShoulder_virtual
					{
						OFFSET 0.000000 0.000000 0.000000
						CHANNELS 3 Zrotation Yrotation Xrotation
						JOINT LeftShoulder
						{
							OFFSET 6.197824 13.665230 -4.064723
							CHANNELS 3 Zrotation Yrotation Xrotation
							JOINT LeftArm
							{
								OFFSET 7.778132 -0.187073 -1.709282
								CHANNELS 3 Zrotation Yrotation Xrotation
								JOINT LeftForeArm
								{
									OFFSET 21.954697 0.000000 -2.041093
									CHANNELS 3 Zrotation Yrotation Xrotation
									JOINT LeftHand
									{
										OFFSET 22.992908 0.000000 -0.870901
										CHANNELS 3 Zrotation Yrotation Xrotation
										End Site
										{
											OFFSET 0.000000 0.000000 0.000000
										}
									}
								}
							}
						}
					}
					JOINT RightShoulder_virtual
					{
						OFFSET 0.000000 0.000000 0.000000
						CHANNELS 3 Zrotation Yrotation Xrotation
						JOINT RightShoulder
						{
							OFFSET -6.197824 13.665230 -4.064723
							CHANNELS 3 Zrotation Yrotation Xrotation
							JOINT RightArm
							{
								OFFSET -7.778132 -0.187073 -1.709282
								CHANNELS 3 Zrotation Yrotation Xrotation
								JOINT RightForeArm
								{
									OFFSET -21.954697 0.000000 -2.041093
									CHANNELS 3 Zrotation Yrotation Xrotation
									JOINT RightHand
									{
										OFFSET -22.992908 0.000000 -0.870901
										CHANNELS 3 Zrotation Yrotation Xrotation
										End Site
										{
											OFFSET 0.000000 0.000000 0.000000
										}
									}
								}
							}
						}
					}
				}
			}
		}
	}
}
MOTION
Frames: 13
Frame Time: 0.033333
11.520805 82.398438 153.004745 179.946825 4.837409 -179.864426 -5.410336 -0.869031 12.025580 0.561951 -9.675890 -25.511721 9.791180 8.304882 26.607396 -4.771425 -4.376395 -4.689478 0.000000 0.000000 0.000000 -0.263447 -0.249584 9.945993 -0.218432 -2.413857 -16.065085 -1.732396 2.357293 22.325981 6.123687 11.796485 -6.477041 0.000000 0.000000 0.000000 2.913263 2.228955 0.466082 -4.416594 1.916721 -3.234610 0.641389 -3.643459 3.688279 0.045007 0.066727 0.039115 0.312268 -2.589420 4.943968 2.372335 2.520145 -15.428853 0.000000 0.000000 0.000000 1.541642 -1.675704 2.132245 8.275144 0.117249 -6.860987 -14.770093 0.132323 -44.515427 -11.132950 -17.783219 -1.620694 0.000000 0.000000 0.000000 -2.140219 -0.398442 1.788728 10.371501 -7.893318 -11.525085 7.760837 -9.694076 -37.038193 1.226991 24.719911 -5.431840 0.000000 0.000000 0.000000 
11.520564 82.411110 153.004623 179.830425 4.937428 -179.774459 -5.387032 -0.930892 12.169110 0.637381 -9.815819 -25.380669 9.923661 8.080900 26.783846 -4.792984 -4.393905 -4.435114 0.000000 0.000000 0.000000 -0.255248 -0.138585 9.954088 -0.111998 -2.928821 -16.084003 -1.614874 2.176259 22.457336 6.272233 11.992024 -6.357349 0.000000 0.000000 0.000000 2.769382 2.306081 0.466260 -4.436793 1.953911 -3.183522 0.605666 -3.617363 3.670096 0.003935 0.088156 0.060960 0.363575 -2.511658 4.951353 2.399782 2.385956 -15.512540 0.000000 0.000000 0.000000 1.604789 -1.541386 2.225712 8.221046 0.061675 -6.686010 -14.846675 0.083575 -44.483099 -10.963110 -17.597644 -1.719286 0.000000 0.000000 0.000000 -2.070975 -0.368926 1.798269 10.415377 -7.842601 -11.501634 7.595604 -9.672333 -36.990874 1.235005 24.597135 -5.395804 0.000000 0.000000 0.000000 
11.514636 82.415886 153.022095 179.859371 4.983813 -179.767683 -5.362241 -0.897780 12.177509 0.635588 -9.804274 -25.398829 9.904071 8.078769 26.763908 -4.783959 -4.406625 -4.437860 0.000000 0.000000 0.000000 -0.210186 -0.091324 9.958308 -0.131706 -2.964746 -16.088734 -1.626275 2.178041 22.382141 6.227708 12.043861 -6.361531 0.000000 0.000000 0.000000 2.765118 2.349643 0.438161 -4.394470 1.970824 -3.051051 0.622491 -3.595581 3.751638 0.042129 0.083204 0.032458 0.297763 -2.498586 5.000630 2.447150 2.372621 -15.369065 0.000000 0.000000 0.000000 1.496314 -1.515050 2.184441 8.206541 -0.074249 -6.672673 -15.099276 0.095417 -44.235597 -10.886156 -17.642589 -1.413100 0.000000 0.000000 0.000000 -2.138534 -0.357987 1.801645 10.417713 -7.786551 -11.358574 7.380142 -9.617854 -37.072634 1.249225 24.435792 -5.344004 0.000000 0.000000 0.000000 
11.497137 82.420914 153.047180 179.856954 4.906585 -179.810932 -5.337106 -0.957217 12.213498 0.579345 -9.781285 -25.383331 9.918716 8.036065 26.775219 -4.767637 -4.409813 -4.410899 0.000000 0.000000 0.000000 -0.188782 -0.300656 9.973255 -0.202434 -2.885648 -16.045453 -1.610276 2.154939 22.280497 6.202043 12.153365 -6.371194 0.000000 0.000000 0.000000 2.746198 2.362001 0.602795 -4.426812 1.980534 -3.017040 0.617008 -3.563252 3.753098 0.075898 0.070368 0.053349 0.253333 -2.502568 5.001672 2.454758 2.022891 -15.277709 0.000000 0.000000 0.000000 1.490956 -1.552988 2.237125 8.220235 -0.308931 -6.592578 -15.310639 0.075896 -43.818799 -10.585405 -17.741901 -1.137583 0.000000 0.000000 0.000000 -2.139384 -0.419160 1.841498 10.397950 -7.756027 -11.269478 7.220610 -9.538024 -37.386123 1.426092 24.285158 -5.041527 0.000000 0.000000 0.000000 
11.473176 82.436707 153.078110 179.867103 5.052322 -179.792873 -5.308673 -0.979332 12.222322 0.526640 -9.696534 -25.390987 9.896506 8.142843 26.721590 -4.746763 -4.407822 -4.370537 0.000000 0.000000 0.000000 -0.144616 -0.359283 9.950955 -0.284830 -2.934375 -15.971834 -1.619122 2.249658 22.129637 6.185439 12.275838 -6.357354 0.000000 0.000000 0.000000 2.755903 2.389505 0.656720 -4.466424 2.027386 -2.979863 0.666889 -3.475884 3.730465 0.070630 0.103446 0.045739 0.319780 -2.418579 4.963041 2.450507 1.837694 -15.164002 0.000000 0.000000 0.000000 1.550990 -1.503417 2.197341 8.212969 -0.515852 -6.535674 -15.569759 0.040074 -43.470240 -10.208214 -17.927911 -1.119575 0.000000 0.000000 0.000000 -2.113099 -0.318327 1.795760 10.469203 -7.705891 -10.861858 6.996690 -9.721288 -37.328353 1.253013 24.128367 -5.222304 0.000000 0.000000 0.000000 
11.439131 82.453102 153.127197 179.900435 4.867941 -179.765989 -5.264490 -1.068422 12.217913 0.489991 -9.674996 -25.406318 9.864472 8.114085 26.678468 -4.748994 -4.424442 -4.304711 0.000000 0.000000 0.000000 -0.093232 -0.582240 9.941591 -0.340126 -2.939096 -15.902598 -1.630149 2.269319 21.828692 6.183315 12.399585 -6.311502 0.000000 0.000000 0.000000 2.786938 2.306808 0.702738 -4.493642 1.959870 -2.959488 0.736462 -3.494318 3.711239 0.040017 0.040393 0.036749 0.409207 -2.349246 4.895383 2.403415 1.635295 -15.053341 0.000000 0.000000 0.000000 1.619455 -1.396503 2.136766 8.289547 -0.727270 -6.493265 -16.023789 0.012049 -43.133758 -9.872667 -18.042074 -0.544290 0.000000 0.000000 0.000000 -2.035216 -0.214269 1.806423 10.361845 -7.668876 -10.868656 6.970670 -10.058862 -37.494323 1.521537 23.937510 -4.728041 0.000000 0.000000 0.000000 
11.400064 82.474167 153.196350 179.945172 4.875528 -179.802011 -5.201517 -1.021029 12.228355 0.435652 -9.581353 -25.418349 9.806421 8.018140 26.581283 -4.719196 -4.398886 -4.234497 0.000000 0.000000 0.000000 -0.010315 -0.551100 9.988272 -0.395182 -2.911188 -15.795028 -1.656582 2.235329 21.484387 6.181178 12.485436 -6.184843 0.000000 0.000000 0.000000 2.804446 2.342458 0.815650 -4.512265 1.989263 -2.961687 0.809887 -3.406190 3.694165 0.024333 0.065753 0.026448 0.510924 -2.333095 4.812150 2.221447 1.475208 -14.787892 0.000000 0.000000 0.000000 1.732411 -1.339960 2.098620 8.196438 -1.094327 -6.428231 -16.533685 0.099588 -42.445814 -9.428082 -18.147307 0.012018 0.000000 0.000000 0.000000 -1.893999 -0.245085 1.770328 10.394803 -7.754903 -10.176811 7.232652 -10.362754 -37.934314 1.346240 23.871141 -4.973323 0.000000 0.000000 0.000000 
11.347956 82.493759 153.265503 179.883837 5.061672 -179.772519 -5.194878 -0.931360 12.261601 0.275402 -9.434625 -25.439690 9.753061 8.019324 26.382342 -4.668821 -4.338565 -4.109464 0.000000 0.000000 0.000000 -0.014320 -0.348972 10.026960 -0.523770 -2.953660 -15.742847 -1.713786 2.227352 21.196637 6.204666 12.509896 -6.156774 0.000000 0.000000 0.000000 2.759558 2.428819 0.960917 -4.516306 2.018957 -3.017306 0.881397 -3.295478 3.670632 0.011726 0.103498 0.067947 0.685375 -2.189965 4.747843 2.053896 1.276009 -14.508865 0.000000 0.000000 0.000000 1.850530 -1.205218 2.039057 7.971135 -1.440669 -6.322845 -17.442220 0.301607 -41.109502 -8.950226 -18.446990 0.582955 0.000000 0.000000 0.000000 -1.749294 -0.085312 1.708840 10.334953 -7.736484 -9.756629 7.820613 -11.076951 -38.217347 1.238586 24.236520 -5.001295 0.000000 0.000000 0.000000 
11.258450 82.511887 153.331482 179.928493 4.729707 -179.786015 -5.128658 -0.972522 12.310143 0.212119 -9.425218 -25.493584 9.678854 7.880026 26.278246 -4.700179 -4.345773 -3.972406 0.000000 0.000000 0.000000 0.080581 -0.552987 10.095416 -0.589307 -2.930599 -15.683808 -1.810382 2.215727 20.902865 6.238376 12.507352 -6.132559 0.000000 0.000000 0.000000 2.787285 2.403823 1.173767 -4.436332 1.965006 -3.078503 1.014307 -3.266749 3.675186 0.049812 0.066483 0.007404 0.715834 -2.118764 4.794016 1.777106 1.048489 -14.157824 0.000000 0.000000 0.000000 1.881609 -1.213280 2.091586 7.647245 -1.951151 -6.137410 -18.752887 0.934258 -39.062436 -8.508460 -19.072197 1.509721 0.000000 0.000000 0.000000 -1.732183 -0.070095 1.711678 10.461719 -7.865761 -9.321241 8.718193 -11.845930 -38.653946 1.266548 25.083246 -4.812905 0.000000 0.000000 0.000000 
11.131695 82.528229 153.399170 179.945678 4.891787 -179.757602 -5.057191 -0.907599 12.379974 0.079590 -9.225716 -25.580600 9.641081 7.887705 26.089313 -4.666150 -4.264751 -3.836065 0.000000 0.000000 0.000000 0.183759 -0.281327 10.180471 -0.677459 -2.681235 -15.775345 -1.889650 2.202469 20.687373 6.309482 12.457909 -6.061962 0.000000 0.000000 0.000000 2.798253 2.421976 1.392322 -4.345257 1.965753 -3.170050 1.072468 -3.173881 3.703101 0.027796 0.080553 0.049668 0.826046 -2.067088 4.792514 1.413068 1.018575 -13.726392 0.000000 0.000000 0.000000 2.014240 -1.218928 2.002653 7.119591 -2.289420 -5.840859 -20.757348 1.761930 -36.046293 -8.007260 -20.205866 2.337928 0.000000 0.000000 0.000000 -1.637279 0.052758 1.673421 10.571382 -7.873243 -8.847624 10.122670 -12.666897 -38.774069 1.159792 26.744856 -4.792026 0.000000 0.000000 0.000000 
10.965662 82.541313 153.481293 179.929463 4.929465 -179.757369 -5.077531 -0.993702 12.471161 -0.022023 -9.170962 -25.688500 9.614744 8.130661 25.961001 -4.706864 -4.245614 -3.708737 0.000000 0.000000 0.000000 0.202025 -0.309671 10.281274 -0.812273 -2.220952 -15.921528 -2.066829 2.371814 20.589554 6.350995 12.299210 -6.002755 0.000000 0.000000 0.000000 2.763679 2.384314 1.644409 -4.232247 1.933339 -3.233266 1.132568 -3.112064 3.778859 0.025814 0.082603 0.057802 0.905538 -1.980628 4.869951 1.015340 0.971168 -13.241513 0.000000 0.000000 0.000000 2.083394 -1.108757 2.084471 6.371256 -2.741324 -5.629018 -23.309851 2.654395 -32.072270 -7.537796 -21.865469 3.225876 0.000000 0.000000 0.000000 -1.573682 0.089623 1.696992 10.834884 -7.911864 -8.284272 11.966457 -13.326883 -38.150903 0.957098 29.060010 -4.847355 0.000000 0.000000 0.000000 
10.773199 82.547585 153.581207 179.934859 5.004879 -179.799812 -5.103791 -1.086441 12.564933 -0.161026 -9.010935 -25.798950 9.606655 8.225835 25.912112 -4.678521 -4.155150 -3.624088 0.000000 0.000000 0.000000 0.249194 -0.381917 10.419587 -0.914536 -1.837801 -16.140242 -2.242054 2.622064 20.629072 6.415326 12.131380 -5.970900 0.000000 0.000000 0.000000 2.725825 2.324896 1.920471 -4.094267 1.862632 -3.274751 1.187062 -3.083024 3.883779 0.030165 0.084171 0.021983 0.929438 -1.968180 5.012181 0.578204 0.908509 -12.705390 0.000000 0.000000 0.000000 2.117506 -1.075629 2.180072 5.409970 -3.085850 -5.277987 -26.535772 3.555589 -27.478153 -7.132485 -23.741717 4.402993 0.000000 0.000000 0.000000 -1.521389 0.076657 1.784371 11.317867 -7.826257 -7.701593 14.108785 -13.564231 -36.773062 0.739153 31.925035 -4.834890 0.000000 0.000000 0.000000 
10.570405 82.535896 153.695541 179.838908 5.117543 -179.841613 -5.193635 -1.183429 12.639703 -0.323200 -8.873017 -25.951015 9.628523 8.460235 25.947136 -4.656178 -4.094731 -3.604577 0.000000 0.000000 0.000000 0.102090 -0.452679 10.533548 -0.915545 -1.432720 -16.408389 -2.440200 2.901228 20.743498 6.445147 11.871626 -5.980251 0.000000 0.000000 0.000000 2.640501 2.245791 2.201515 -4.000925 1.725222 -3.293085 1.186929 -3.093692 4.035726 -0.001186 0.038306 0.044907 1.059935 -1.909969 5.127398 0.152511 0.854170 -12.183475 0.000000 0.000000 0.000000 2.268239 -1.030305 2.221651 4.139213 -3.360970 -4.937864 -30.267235 4.426792 -22.306993 -6.844211 -25.654505 5.250733 0.000000 0.000000 0.000000 -1.398042 0.123195 1.804238 11.977908 -7.455648 -6.993069 16.466616 -13.463519 -34.354554 0.411339 35.087829 -4.902938 0.000000 0.000000 0.000000 
